<svg width="13" height="12" viewBox="0 0 13 12" fill="none" xmlns="http://www.w3.org/2000/svg">
<g clip-path="url(#clip0_33_1122)">
<path d="M6.4961 4.50027C8.60347 4.50027 10.7112 4.50152 12.8185 4.49745C12.9562 4.49714 12.9997 4.52594 12.9991 4.67277C12.9931 6.27628 12.9966 7.87979 12.995 9.48361C12.9937 10.8924 11.8867 11.9981 10.4765 11.9991C7.83311 12.0003 5.18943 12.0003 2.54606 11.9994C1.1036 11.9988 0.00501297 10.9005 0.00438717 9.46013C0.00376137 7.86695 0.00657746 6.27377 6.59056e-06 4.6806C-0.000619207 4.52532 0.0431866 4.49652 0.188997 4.49683C2.29136 4.50184 4.39373 4.50027 6.4961 4.50027ZM4.44129 6.99977C4.2839 7.0101 4.1262 7.10777 4.04203 7.30156C3.95786 7.49566 3.98446 7.68569 4.1334 7.8369C4.64092 8.3522 5.15126 8.86468 5.66754 9.37091C5.85966 9.55906 6.15097 9.55342 6.34403 9.36152C7.18572 8.52532 8.02367 7.68569 8.86004 6.84449C8.9949 6.70893 9.03339 6.53863 8.97582 6.35392C8.85785 5.97637 8.41542 5.8765 8.12473 6.16639C7.44637 6.84198 6.77051 7.52008 6.09746 8.20099C6.02143 8.278 5.98013 8.28145 5.90315 8.20193C5.56616 7.85474 5.22135 7.51507 4.88123 7.17101C4.77421 7.06238 4.65062 6.9957 4.44129 6.99977Z" fill="#F6C332"/>
<path d="M6.49907 3.50072C4.39139 3.50072 2.28339 3.49915 0.175704 3.50447C0.0289543 3.50479 -0.00264845 3.46221 0.000167642 3.32383C0.0089288 2.89713 0.00235793 2.4698 0.00392243 2.04309C0.00517402 1.70311 0.207932 1.5015 0.550556 1.5015C4.51623 1.50087 8.48191 1.50087 12.4479 1.50118C12.7899 1.50118 12.9933 1.70279 12.9945 2.04278C12.9961 2.47512 12.987 2.90746 12.9992 3.33917C13.0036 3.48944 12.9482 3.50322 12.8224 3.50291C10.7148 3.49978 8.60676 3.50072 6.49907 3.50072Z" fill="#F6C332"/>
<path d="M2.76333 0.00125365C3.00207 0.00125365 3.24113 -0.000937787 3.47987 0.00156672C3.78276 0.00469735 4.00272 0.218519 4.00179 0.50372C4.00085 0.787668 3.77869 0.999298 3.47455 1.00055C2.99144 1.00243 2.50863 1.00274 2.02552 1.00024C1.72357 0.998672 1.50235 0.783285 1.50391 0.498711C1.50548 0.214136 1.72607 0.00438428 2.03084 0.00187978C2.2749 -0.000624724 2.51927 0.00125365 2.76333 0.00125365Z" fill="#F6C332"/>
<path d="M10.2415 1.00115C10.0028 1.00115 9.76372 1.00271 9.52498 1.00083C9.22052 0.998329 8.9993 0.787951 8.99805 0.50369C8.9968 0.218803 9.21739 0.00372892 9.52028 0.00216361C10.0034 -0.000340894 10.4862 -0.000340894 10.9693 0.00185054C11.2741 0.00310279 11.4947 0.21442 11.4962 0.498994C11.4978 0.783255 11.276 0.998016 10.974 1.00083C10.7296 1.00271 10.4856 1.00115 10.2415 1.00115Z" fill="#F6C332"/>
</g>
<defs>
<clipPath id="clip0_33_1122">
<rect width="13" height="12" fill="white"/>
</clipPath>
</defs>
</svg>
