<svg width="15" height="11" viewBox="0 0 15 11" fill="none" xmlns="http://www.w3.org/2000/svg">
<path d="M0 5.20322C0.519258 3.74893 1.55425 2.73086 2.6915 1.81078C3.62981 1.05189 4.67949 0.509121 5.84026 0.215148C7.34602 -0.166131 8.81798 -0.0376132 10.2453 0.576585C12.0352 1.34678 13.4716 2.5767 14.5666 4.23644C14.7155 4.46264 14.8366 4.70564 14.9348 4.96145C15.0226 5.19071 15.0206 5.41203 14.9351 5.64098C14.7587 6.11506 14.4922 6.53297 14.1939 6.92921C13.1545 8.30871 11.885 9.38936 10.329 10.0832C8.46623 10.9139 6.59049 10.9291 4.72563 10.1006C2.95422 9.31335 1.54543 8.06144 0.465187 6.4075C0.264772 6.1001 0.117546 5.76583 0 5.4166C0 5.34548 0 5.27435 0 5.20322ZM11.2679 5.36929C11.2717 3.21562 9.6023 1.45637 7.54702 1.44935C5.43178 1.44202 3.75147 3.1738 3.74794 5.3644C3.74442 7.49242 5.4262 9.25718 7.4618 9.26115C9.57733 9.26542 11.2641 7.54096 11.2679 5.36929Z" fill="#F6C332"/>
<path d="M8.31131 3.08804C7.85112 3.63813 7.82614 4.19158 8.23461 4.6098C8.64073 5.02588 9.17615 4.99566 9.67837 4.52799C10.0131 5.22919 9.87673 6.44995 9.02423 7.20397C8.15233 7.97507 6.8511 7.97568 5.98449 7.19786C5.10202 6.406 4.91218 5.07717 5.53488 4.05147C6.1185 3.09018 7.35302 2.65822 8.31131 3.08804Z" fill="#F6C332"/>
</svg>
