<svg width="78" height="38" viewBox="0 0 78 38" fill="none" xmlns="http://www.w3.org/2000/svg">
<path d="M76.7678 20.7678C77.7441 19.7915 77.7441 18.2085 76.7678 17.2322L60.8579 1.32233C59.8816 0.346023 58.2987 0.346023 57.3223 1.32233C56.346 2.29864 56.346 3.88156 57.3223 4.85787L71.4645 19L57.3223 33.1421C56.346 34.1184 56.346 35.7014 57.3223 36.6777C58.2987 37.654 59.8816 37.654 60.8579 36.6777L76.7678 20.7678ZM0.493164 21.5L75 21.5L75 16.5L0.493164 16.5L0.493164 21.5Z" fill="white"/>
<path d="M76.7678 20.7678C77.7441 19.7915 77.7441 18.2085 76.7678 17.2322L60.8579 1.32233C59.8816 0.346023 58.2987 0.346023 57.3223 1.32233C56.346 2.29864 56.346 3.88156 57.3223 4.85787L71.4645 19L57.3223 33.1421C56.346 34.1184 56.346 35.7014 57.3223 36.6777C58.2987 37.654 59.8816 37.654 60.8579 36.6777L76.7678 20.7678ZM0.493164 21.5L75 21.5L75 16.5L0.493164 16.5L0.493164 21.5Z" fill="url(#paint0_linear)"/>
<defs>
<linearGradient id="paint0_linear" x1="37.7466" y1="19" x2="37.7466" y2="20" gradientUnits="userSpaceOnUse">
<stop stop-color="white"/>
<stop offset="1" stop-color="white" stop-opacity="0"/>
</linearGradient>
</defs>
</svg>
