<svg width="20" height="11" viewBox="0 0 20 11" fill="none" xmlns="http://www.w3.org/2000/svg">
<g clip-path="url(#clip0)">
<path d="M0.992676 5.20335C1.62307 3.74905 2.87957 2.73098 4.26022 1.81091C5.39935 1.05201 6.67368 0.509244 8.08288 0.215271C9.9109 -0.166009 11.6979 -0.0374912 13.4307 0.576708C15.6037 1.3469 17.3475 2.57682 18.6768 4.23656C18.8577 4.46277 19.0047 4.70576 19.1238 4.96158C19.2305 5.19083 19.228 5.41215 19.1242 5.6411C18.9101 6.11518 18.5865 6.5331 18.2244 6.92933C16.9626 8.30884 15.4214 9.38949 13.5323 10.0834C11.2709 10.914 8.99368 10.9293 6.72969 10.1008C4.57916 9.31348 2.86886 8.06157 1.55742 6.40763C1.31411 6.10023 1.13538 5.76596 0.992676 5.41673C0.992676 5.3456 0.992676 5.27448 0.992676 5.20335ZM14.6722 5.36941C14.6768 3.21575 12.6501 1.45649 10.1549 1.44947C7.58698 1.44214 5.54704 3.17393 5.54276 5.36453C5.53848 7.49255 7.5802 9.25731 10.0515 9.26127C12.6198 9.26555 14.6676 7.54109 14.6722 5.36941Z" fill="#F6C332"/>
<path d="M11.083 3.08816C10.5243 3.63826 10.494 4.19171 10.9899 4.60992C11.4829 5.026 12.1329 4.99578 12.7426 4.52811C13.149 5.22931 12.9835 6.45008 11.9485 7.20409C10.89 7.9752 9.31027 7.97581 8.2582 7.19798C7.18685 6.40612 6.95639 5.07729 7.71236 4.05159C8.42088 3.0903 9.91962 2.65835 11.083 3.08816Z" fill="#F6C332"/>
</g>
<defs>
<clipPath id="clip0">
<rect width="18.2103" height="10.7143" fill="white" transform="translate(0.992676)"/>
</clipPath>
</defs>
</svg>
