<svg width="17" height="12" viewBox="0 0 17 12" fill="none" xmlns="http://www.w3.org/2000/svg">
<g clip-path="url(#clip0)">
<path d="M8.21868 4.50027C10.7771 4.50027 13.3359 4.50152 15.8942 4.49745C16.0614 4.49714 16.1142 4.52594 16.1134 4.67277C16.1062 6.27628 16.1104 7.87979 16.1085 9.48361C16.107 10.8924 14.763 11.9981 13.051 11.9991C9.84185 12.0003 6.63236 12.0003 3.42325 11.9994C1.67207 11.9988 0.338361 10.9005 0.337602 9.46013C0.336842 7.86695 0.340261 6.27377 0.332283 4.6806C0.331524 4.52532 0.384705 4.49652 0.561722 4.49683C3.11404 4.50184 5.66636 4.50027 8.21868 4.50027ZM5.7241 6.99977C5.53303 7.0101 5.34157 7.10777 5.23939 7.30156C5.13721 7.49566 5.1695 7.68569 5.35031 7.8369C5.96645 8.3522 6.58602 8.86468 7.21279 9.37091C7.44603 9.55906 7.79969 9.55342 8.03406 9.36152C9.0559 8.52532 10.0732 7.68569 11.0886 6.84449C11.2523 6.70893 11.299 6.53863 11.2291 6.35392C11.0859 5.97636 10.5488 5.8765 10.1959 6.16639C9.37233 6.84198 8.55182 7.52008 7.73473 8.20099C7.64242 8.278 7.59228 8.28145 7.49883 8.20193C7.08972 7.85474 6.6711 7.51507 6.25819 7.17101C6.12828 7.06238 5.97823 6.9957 5.7241 6.99977Z" fill="#F6C332"/>
<path d="M8.22302 3.50072C5.66425 3.50072 3.10509 3.49915 0.546316 3.50447C0.368159 3.50479 0.329793 3.46221 0.333211 3.32383C0.343848 2.89713 0.33587 2.4698 0.33777 2.04309C0.339289 1.70311 0.585442 1.5015 1.0014 1.5015C5.81581 1.50087 10.6302 1.50087 15.445 1.50118C15.8602 1.50118 16.1071 1.70279 16.1087 2.04278C16.1106 2.47512 16.0995 2.90746 16.1144 3.33917C16.1197 3.48944 16.0524 3.50322 15.8997 3.50291C13.341 3.49978 10.7818 3.50072 8.22302 3.50072Z" fill="#F6C332"/>
<path d="M3.68644 0.00125365C3.97628 0.00125365 4.2665 -0.000937787 4.55633 0.00156672C4.92404 0.00469735 5.19109 0.218519 5.18995 0.50372C5.18881 0.787668 4.91911 0.999298 4.54988 1.00055C3.96336 1.00243 3.37723 1.00274 2.79072 1.00024C2.42415 0.998672 2.15558 0.783285 2.15748 0.498711C2.15938 0.214136 2.42719 0.00438428 2.79718 0.00187978C3.09347 -0.000624724 3.39015 0.00125365 3.68644 0.00125365Z" fill="#F6C332"/>
<path d="M12.7659 1.00115C12.4761 1.00115 12.1859 1.00271 11.8961 1.00083C11.5264 0.998329 11.2579 0.787951 11.2564 0.50369C11.2548 0.218803 11.5226 0.00372892 11.8904 0.00216361C12.4769 -0.000340894 13.063 -0.000340894 13.6495 0.00185054C14.0195 0.00310279 14.2873 0.21442 14.2892 0.498994C14.2911 0.783255 14.0218 0.998016 13.6552 1.00083C13.3585 1.00271 13.0622 1.00115 12.7659 1.00115Z" fill="#F6C332"/>
</g>
<defs>
<clipPath id="clip0">
<rect width="15.7823" height="12" fill="white" transform="translate(0.332275)"/>
</clipPath>
</defs>
</svg>
