<svg width="121" height="121" viewBox="0 0 121 121" fill="none" xmlns="http://www.w3.org/2000/svg">
<path d="M53.1554 71.5612H63.5955V70.629C63.6506 65.2826 65.5789 62.7876 69.9313 60.1829C75.0825 57.1396 78.4432 53.1092 78.4432 46.6661C78.4432 37.07 70.675 31.4768 59.739 31.4768C49.7396 31.4768 41.5858 36.6861 41.3379 47.6531H52.5769C52.7422 43.1841 56.0753 40.7988 59.6839 40.7988C63.4027 40.7988 66.4053 43.2663 66.4053 47.0774C66.4053 50.6691 63.7884 53.0544 60.4001 55.1929C55.7723 58.0992 53.1829 61.0329 53.1554 70.629V71.5612ZM58.5821 89.1084C62.108 89.1084 65.1657 86.1747 65.1932 82.5282C65.1657 78.9365 62.108 76.0028 58.5821 76.0028C54.9459 76.0028 51.9433 78.9365 51.9709 82.5282C51.9433 86.1747 54.9459 89.1084 58.5821 89.1084Z" fill="white"/>
<circle cx="60.2852" cy="60.6873" r="58.5" stroke="white" stroke-width="3"/>
</svg>
